<mxfile host="app.diagrams.net" modified="2023-12-21T00:00:56.039Z" agent="Mozilla/5.0 (Windows NT 10.0; Win64; x64) AppleWebKit/537.36 (KHTML, like Gecko) Chrome/120.0.0.0 Safari/537.36" etag="Tkn-8TyXiFAngmn5KBfk" version="22.1.11" type="device">
  <diagram name="페이지-1" id="yvfdO8lfZHxjalDoZfbR">
    <mxGraphModel dx="1834" dy="1938" grid="0" gridSize="10" guides="1" tooltips="1" connect="1" arrows="1" fold="1" page="0" pageScale="1" pageWidth="827" pageHeight="1169" math="0" shadow="0">
      <root>
        <mxCell id="0" />
        <mxCell id="1" parent="0" />
        <mxCell id="zY5DxXfeIwydcZwarmQJ-19" value="&lt;h1 style=&quot;border-color: var(--border-color); font-size: 19px;&quot;&gt;&lt;font style=&quot;border-color: var(--border-color); font-size: 19px;&quot;&gt;public class ParentChildMain{&lt;br style=&quot;border-color: var(--border-color); font-size: 19px;&quot;&gt;&lt;/font&gt;&lt;/h1&gt;&lt;h1 style=&quot;border-color: var(--border-color); font-size: 19px;&quot;&gt;&lt;font style=&quot;border-color: var(--border-color); font-size: 19px;&quot;&gt;&amp;nbsp;&amp;nbsp;&amp;nbsp;&amp;nbsp;&amp;nbsp;public static void main(String[] args){&lt;/font&gt;&lt;/h1&gt;&lt;h1 style=&quot;border-color: var(--border-color); font-size: 19px;&quot;&gt;&lt;font style=&quot;border-color: var(--border-color); font-size: 19px;&quot;&gt;&amp;nbsp;&amp;nbsp;&amp;nbsp;&amp;nbsp;&amp;nbsp;&amp;nbsp;&amp;nbsp;&amp;nbsp;&amp;nbsp;Child c = new Child();&lt;/font&gt;&lt;/h1&gt;&lt;h1 style=&quot;border-color: var(--border-color); font-size: 19px;&quot;&gt;&lt;font style=&quot;border-color: var(--border-color); font-size: 19px;&quot;&gt;&amp;nbsp;&amp;nbsp;&amp;nbsp;&amp;nbsp;&amp;nbsp;}&lt;/font&gt;&lt;/h1&gt;&lt;h1 style=&quot;border-color: var(--border-color); font-size: 19px;&quot;&gt;&lt;font style=&quot;border-color: var(--border-color); font-size: 19px;&quot;&gt;&amp;nbsp;}&lt;/font&gt;&lt;/h1&gt;&lt;h1 style=&quot;font-size: 19px;&quot;&gt;&lt;div style=&quot;border-color: var(--border-color); font-size: 19px;&quot;&gt;&lt;br style=&quot;border-color: var(--border-color); font-weight: 400; font-size: 19px;&quot;&gt;&lt;/div&gt;&lt;/h1&gt;" style="text;html=1;strokeColor=#6c8ebf;fillColor=#dae8fc;spacing=5;spacingTop=-20;whiteSpace=wrap;overflow=hidden;rounded=0;fontSize=19;fontFamily=Helvetica;" vertex="1" parent="1">
          <mxGeometry x="-221" y="-320" width="577" height="176" as="geometry" />
        </mxCell>
        <mxCell id="zY5DxXfeIwydcZwarmQJ-20" value="" style="group" vertex="1" connectable="0" parent="1">
          <mxGeometry x="421" y="-896" width="547" height="324" as="geometry" />
        </mxCell>
        <mxCell id="zY5DxXfeIwydcZwarmQJ-2" value="&lt;h1 style=&quot;font-size: 24px;&quot;&gt;&lt;span style=&quot;background-color: initial; font-family: -apple-system, BlinkMacSystemFont, &amp;quot;Segoe UI&amp;quot;, &amp;quot;Noto Sans&amp;quot;, Helvetica, Arial, sans-serif, &amp;quot;Apple Color Emoji&amp;quot;, &amp;quot;Segoe UI Emoji&amp;quot;;&quot;&gt;Child기본생성자호출시작&lt;/span&gt;&lt;br&gt;&lt;/h1&gt;&lt;blockquote style=&quot;margin: 0 0 0 40px; border: none; padding: 0px;&quot;&gt;&lt;blockquote style=&quot;margin: 0 0 0 40px; border: none; padding: 0px;&quot;&gt;&lt;h1 style=&quot;font-size: 24px;&quot;&gt;&lt;p style=&quot;background-color: initial; font-family: -apple-system, BlinkMacSystemFont, &amp;quot;Segoe UI&amp;quot;, &amp;quot;Noto Sans&amp;quot;, Helvetica, Arial, sans-serif, &amp;quot;Apple Color Emoji&amp;quot;, &amp;quot;Segoe UI Emoji&amp;quot;; box-sizing: border-box; margin-top: 16px; margin-bottom: 16px; font-size: 24px; display: inline !important;&quot; dir=&quot;auto&quot;&gt;Parent기본생성자호출시작&lt;/p&gt;&lt;/h1&gt;&lt;/blockquote&gt;&lt;blockquote style=&quot;margin: 0 0 0 40px; border: none; padding: 0px;&quot;&gt;&lt;blockquote style=&quot;margin: 0 0 0 40px; border: none; padding: 0px;&quot;&gt;&lt;blockquote style=&quot;margin: 0 0 0 40px; border: none; padding: 0px;&quot;&gt;&lt;h1 style=&quot;font-size: 24px;&quot;&gt;&lt;span style=&quot;font-size: 24px;&quot;&gt;Object기본생성자호출시작&lt;/span&gt;&lt;/h1&gt;&lt;/blockquote&gt;&lt;/blockquote&gt;&lt;/blockquote&gt;&lt;blockquote style=&quot;margin: 0 0 0 40px; border: none; padding: 0px;&quot;&gt;&lt;blockquote style=&quot;margin: 0 0 0 40px; border: none; padding: 0px;&quot;&gt;&lt;blockquote style=&quot;margin: 0 0 0 40px; border: none; padding: 0px;&quot;&gt;&lt;h1 style=&quot;font-size: 24px;&quot;&gt;&lt;span style=&quot;font-size: 24px;&quot;&gt;&amp;nbsp; &amp;nbsp;&lt;/span&gt;&lt;/h1&gt;&lt;/blockquote&gt;&lt;/blockquote&gt;&lt;/blockquote&gt;&lt;blockquote style=&quot;margin: 0 0 0 40px; border: none; padding: 0px;&quot;&gt;&lt;blockquote style=&quot;margin: 0 0 0 40px; border: none; padding: 0px;&quot;&gt;&lt;blockquote style=&quot;margin: 0 0 0 40px; border: none; padding: 0px;&quot;&gt;&lt;h1 style=&quot;font-size: 24px;&quot;&gt;&lt;span style=&quot;font-size: 24px;&quot;&gt;Object기본생성자호출종료&lt;/span&gt;&lt;/h1&gt;&lt;/blockquote&gt;&lt;/blockquote&gt;&lt;/blockquote&gt;&lt;blockquote style=&quot;margin: 0 0 0 40px; border: none; padding: 0px;&quot;&gt;&lt;h1 style=&quot;font-size: 24px;&quot;&gt;&lt;span style=&quot;font-size: 24px;&quot;&gt;Parent기본생성자호출종료&lt;/span&gt;&lt;/h1&gt;&lt;/blockquote&gt;&lt;/blockquote&gt;&lt;h1 style=&quot;font-size: 24px;&quot;&gt;Child기본생성자호출종료&lt;br style=&quot;font-size: 24px;&quot;&gt;&lt;/h1&gt;" style="text;html=1;strokeColor=#B20000;fillColor=#e51400;spacing=5;spacingTop=-20;whiteSpace=wrap;overflow=hidden;rounded=0;fontSize=24;fontStyle=1;align=left;fontColor=#080808;" vertex="1" parent="zY5DxXfeIwydcZwarmQJ-20">
          <mxGeometry width="547" height="324" as="geometry" />
        </mxCell>
        <mxCell id="zY5DxXfeIwydcZwarmQJ-3" value="&lt;h1 style=&quot;border-color: var(--border-color); font-size: 24px;&quot;&gt;&lt;p style=&quot;border-color: var(--border-color); background-color: initial; font-family: -apple-system, BlinkMacSystemFont, &amp;quot;Segoe UI&amp;quot;, &amp;quot;Noto Sans&amp;quot;, Helvetica, Arial, sans-serif, &amp;quot;Apple Color Emoji&amp;quot;, &amp;quot;Segoe UI Emoji&amp;quot;; box-sizing: border-box; margin-top: 16px; margin-bottom: 16px; display: inline !important;&quot; dir=&quot;auto&quot;&gt;Parent기본생성자호출시작&lt;/p&gt;&lt;/h1&gt;&lt;h1 style=&quot;border-color: var(--border-color); font-size: 24px;&quot;&gt;&lt;span style=&quot;white-space: pre;&quot;&gt;&#x9;&lt;/span&gt;Object기본생성자호출시작&lt;/h1&gt;&lt;h1 style=&quot;border-color: var(--border-color); font-size: 24px;&quot;&gt;&lt;span style=&quot;border-color: var(--border-color);&quot;&gt;&amp;nbsp; &amp;nbsp;&lt;span style=&quot;white-space: pre;&quot;&gt;&#x9;&lt;/span&gt;&lt;/span&gt;&lt;/h1&gt;&lt;h1 style=&quot;border-color: var(--border-color); font-size: 24px;&quot;&gt;&lt;span style=&quot;border-color: var(--border-color);&quot;&gt;&lt;span style=&quot;white-space: pre;&quot;&gt;&#x9;&lt;/span&gt;Object기본생성자호출종료&lt;/span&gt;&lt;/h1&gt;&lt;h1 style=&quot;border-color: var(--border-color); font-size: 24px;&quot;&gt;&lt;span style=&quot;border-color: var(--border-color);&quot;&gt;Parent기본생성자호출종료&lt;/span&gt;&lt;/h1&gt;" style="rounded=0;whiteSpace=wrap;html=1;fillColor=#fa6800;strokeColor=#C73500;align=left;fontColor=#000000;" vertex="1" parent="zY5DxXfeIwydcZwarmQJ-20">
          <mxGeometry x="78" y="49" width="397" height="213" as="geometry" />
        </mxCell>
        <mxCell id="zY5DxXfeIwydcZwarmQJ-5" value="&lt;h1 style=&quot;border-color: var(--border-color); font-size: 24px;&quot;&gt;&lt;span style=&quot;background-color: initial;&quot;&gt;Object기본생성자호출시작&lt;/span&gt;&lt;br&gt;&lt;/h1&gt;&lt;h1&gt;&lt;blockquote style=&quot;border: none; margin: 0px 0px 0px 40px; padding: 0px;&quot;&gt;&lt;blockquote style=&quot;border: none; margin: 0px 0px 0px 40px; padding: 0px;&quot;&gt;&lt;blockquote style=&quot;border: none; margin: 0px 0px 0px 40px; padding: 0px;&quot;&gt;&lt;/blockquote&gt;&lt;/blockquote&gt;&lt;/blockquote&gt;&lt;/h1&gt;&lt;h1 style=&quot;border-color: var(--border-color); font-size: 24px;&quot;&gt;&amp;nbsp; &amp;nbsp;&lt;/h1&gt;&lt;h1&gt;&lt;blockquote style=&quot;border: none; margin: 0px 0px 0px 40px; padding: 0px;&quot;&gt;&lt;blockquote style=&quot;border: none; margin: 0px 0px 0px 40px; padding: 0px;&quot;&gt;&lt;blockquote style=&quot;border: none; margin: 0px 0px 0px 40px; padding: 0px;&quot;&gt;&lt;/blockquote&gt;&lt;/blockquote&gt;&lt;/blockquote&gt;&lt;/h1&gt;&lt;h1 style=&quot;border-color: var(--border-color); font-size: 24px;&quot;&gt;&lt;span style=&quot;border-color: var(--border-color);&quot;&gt;Object기본생성자호출종료&lt;/span&gt;&lt;/h1&gt;&lt;h1&gt;&lt;blockquote style=&quot;border: none; margin: 0px 0px 0px 40px; padding: 0px;&quot;&gt;&lt;blockquote style=&quot;border: none; margin: 0px 0px 0px 40px; padding: 0px;&quot;&gt;&lt;blockquote style=&quot;border: none; margin: 0px 0px 0px 40px; padding: 0px;&quot;&gt;&lt;/blockquote&gt;&lt;/blockquote&gt;&lt;/blockquote&gt;&lt;blockquote style=&quot;border: none; margin: 0px 0px 0px 40px; padding: 0px;&quot;&gt;&lt;/blockquote&gt;&lt;/h1&gt;&lt;h1 style=&quot;border-color: var(--border-color); font-size: 24px;&quot;&gt;&lt;br&gt;&lt;/h1&gt;" style="text;html=1;strokeColor=#B09500;fillColor=#e3c800;spacing=5;spacingTop=-20;whiteSpace=wrap;overflow=hidden;rounded=0;fontSize=12;fontFamily=Helvetica;fontStyle=1;fontColor=#000000;" vertex="1" parent="zY5DxXfeIwydcZwarmQJ-20">
          <mxGeometry x="126" y="90" width="322" height="129" as="geometry" />
        </mxCell>
        <mxCell id="zY5DxXfeIwydcZwarmQJ-21" value="" style="group" vertex="1" connectable="0" parent="1">
          <mxGeometry x="-219" y="-1018" width="574" height="670" as="geometry" />
        </mxCell>
        <mxCell id="zY5DxXfeIwydcZwarmQJ-1" value="&lt;h1 style=&quot;font-size: 17px;&quot;&gt;&lt;font style=&quot;font-size: 17px;&quot;&gt;&amp;nbsp;public class Object{&lt;/font&gt;&lt;/h1&gt;&lt;h1 style=&quot;font-size: 17px;&quot;&gt;&lt;font style=&quot;font-size: 17px;&quot;&gt;&amp;nbsp;&amp;nbsp;&amp;nbsp;&amp;nbsp;&amp;nbsp;public Object(){&lt;/font&gt;&lt;/h1&gt;&lt;div style=&quot;font-size: 18px;&quot;&gt;&lt;span style=&quot;background-color: initial;&quot;&gt;&lt;span style=&quot;font-size: 17px; white-space: pre;&quot;&gt;&amp;nbsp;     &lt;/span&gt;&lt;/span&gt;&lt;/div&gt;&lt;div style=&quot;font-size: 18px;&quot;&gt;&lt;span style=&quot;background-color: initial;&quot;&gt;&lt;span style=&quot;font-size: 17px; white-space: pre;&quot;&gt;&lt;br&gt;&lt;/span&gt;&lt;/span&gt;&lt;/div&gt;&lt;div style=&quot;font-size: 18px;&quot;&gt;&lt;span style=&quot;background-color: initial;&quot;&gt;&lt;span style=&quot;font-size: 17px; white-space: pre;&quot;&gt;&lt;br&gt;&lt;/span&gt;&lt;/span&gt;&lt;/div&gt;&lt;h1 style=&quot;border-color: var(--border-color); font-size: 17px;&quot;&gt;&lt;blockquote style=&quot;border: none; margin: 0px 0px 0px 40px; padding: 0px;&quot;&gt;&lt;blockquote style=&quot;border: none; margin: 0px 0px 0px 40px; padding: 0px;&quot;&gt;&lt;blockquote style=&quot;border: none; margin: 0px 0px 0px 40px; padding: 0px;&quot;&gt;&lt;/blockquote&gt;&lt;/blockquote&gt;&lt;/blockquote&gt;&lt;blockquote style=&quot;border: none; margin: 0px 0px 0px 40px; padding: 0px;&quot;&gt;&lt;/blockquote&gt;&lt;/h1&gt;&lt;h1 style=&quot;border-color: var(--border-color); font-size: 17px;&quot;&gt;&lt;span style=&quot;background-color: initial; font-weight: normal;&quot;&gt;&amp;nbsp; &amp;nbsp; &amp;nbsp;}&lt;/span&gt;&lt;span style=&quot;background-color: initial; font-weight: normal;&quot;&gt;&amp;nbsp; &amp;nbsp;&amp;nbsp;&lt;/span&gt;&lt;br&gt;&lt;/h1&gt;&lt;h1 style=&quot;font-size: 17px;&quot;&gt;&lt;font style=&quot;font-size: 17px;&quot;&gt;&lt;span style=&quot;background-color: initial; font-weight: normal;&quot;&gt;&amp;nbsp;}&lt;/span&gt;&lt;br&gt;&lt;/font&gt;&lt;/h1&gt;&lt;h1 style=&quot;font-size: 17px;&quot;&gt;&lt;font style=&quot;font-size: 17px;&quot;&gt;&amp;nbsp;public class Parent extends Object{&lt;/font&gt;&lt;/h1&gt;&lt;h1 style=&quot;font-size: 17px;&quot;&gt;&lt;font style=&quot;font-size: 17px;&quot;&gt;&amp;nbsp;&amp;nbsp;&amp;nbsp;&amp;nbsp;&amp;nbsp;public Parent(){&lt;/font&gt;&lt;/h1&gt;&lt;div&gt;&lt;font style=&quot;font-size: 17px;&quot;&gt;&lt;br&gt;&lt;/font&gt;&lt;/div&gt;&lt;div&gt;&lt;font style=&quot;font-size: 17px;&quot;&gt;&lt;br&gt;&lt;/font&gt;&lt;/div&gt;&lt;div&gt;&lt;font style=&quot;font-size: 17px;&quot;&gt;&lt;br&gt;&lt;/font&gt;&lt;/div&gt;&lt;h1 style=&quot;font-size: 17px;&quot;&gt;&lt;font style=&quot;font-size: 17px;&quot;&gt;&amp;nbsp; &amp;nbsp; &amp;nbsp; &amp;nbsp; &amp;nbsp;&lt;/font&gt;&lt;/h1&gt;&lt;h1 style=&quot;font-size: 17px;&quot;&gt;&lt;font style=&quot;font-size: 17px;&quot;&gt;&amp;nbsp;&amp;nbsp;&amp;nbsp;&amp;nbsp;&amp;nbsp;}&lt;/font&gt;&lt;/h1&gt;&lt;h1 style=&quot;font-size: 17px;&quot;&gt;&lt;font style=&quot;font-size: 17px;&quot;&gt;&amp;nbsp;}&lt;/font&gt;&lt;/h1&gt;&lt;h1 style=&quot;font-size: 17px;&quot;&gt;&lt;font style=&quot;font-size: 17px;&quot;&gt;&amp;nbsp;public class Child extends Parent{&lt;/font&gt;&lt;/h1&gt;&lt;h1 style=&quot;font-size: 17px;&quot;&gt;&lt;font style=&quot;font-size: 17px;&quot;&gt;&amp;nbsp;&amp;nbsp;&amp;nbsp;&amp;nbsp;&amp;nbsp;public Child(){&lt;/font&gt;&lt;/h1&gt;&lt;h1 style=&quot;font-size: 17px;&quot;&gt;&lt;font style=&quot;font-size: 17px;&quot;&gt;&amp;nbsp; &amp;nbsp; &amp;nbsp; &amp;nbsp; &amp;nbsp;&lt;/font&gt;&lt;/h1&gt;&lt;div&gt;&lt;font style=&quot;font-size: 17px;&quot;&gt;&lt;br&gt;&lt;/font&gt;&lt;/div&gt;&lt;div&gt;&lt;font style=&quot;font-size: 17px;&quot;&gt;&lt;br&gt;&lt;/font&gt;&lt;/div&gt;&lt;div&gt;&lt;font style=&quot;font-size: 17px;&quot;&gt;&lt;br&gt;&lt;/font&gt;&lt;/div&gt;&lt;h1 style=&quot;font-size: 17px;&quot;&gt;&lt;font style=&quot;font-size: 17px;&quot;&gt;&amp;nbsp;&amp;nbsp;&amp;nbsp;&amp;nbsp;&amp;nbsp;}&lt;/font&gt;&lt;/h1&gt;&lt;h1 style=&quot;font-size: 17px;&quot;&gt;&lt;font style=&quot;font-size: 17px;&quot;&gt;&amp;nbsp;}&lt;/font&gt;&lt;/h1&gt;&lt;h1 style=&quot;font-size: 17px;&quot;&gt;&lt;span style=&quot;background-color: initial; font-weight: normal;&quot;&gt;&lt;font style=&quot;font-size: 17px;&quot;&gt;&lt;br&gt;&lt;/font&gt;&lt;/span&gt;&lt;/h1&gt;&lt;h1 style=&quot;font-size: 17px;&quot;&gt;&lt;font style=&quot;font-size: 17px;&quot;&gt;&lt;span style=&quot;background-color: initial; font-weight: normal;&quot;&gt;&amp;nbsp;&lt;/span&gt;&lt;/font&gt;&lt;/h1&gt;" style="text;html=1;strokeColor=#6c8ebf;fillColor=#dae8fc;spacing=5;spacingTop=-20;whiteSpace=wrap;overflow=hidden;rounded=0;fontSize=15;fontStyle=0;movable=1;resizable=1;rotatable=1;deletable=1;editable=1;locked=0;connectable=1;" vertex="1" parent="zY5DxXfeIwydcZwarmQJ-21">
          <mxGeometry width="574" height="670" as="geometry" />
        </mxCell>
        <mxCell id="zY5DxXfeIwydcZwarmQJ-15" value="&lt;h1 style=&quot;border-color: var(--border-color); font-size: 16px;&quot;&gt;&lt;i&gt;&lt;span style=&quot;background-color: initial; font-size: 16px;&quot;&gt;Object기본생성자호출시작&lt;/span&gt;&lt;br style=&quot;font-size: 16px;&quot;&gt;&lt;/i&gt;&lt;/h1&gt;&lt;h1 style=&quot;font-size: 16px;&quot;&gt;&lt;blockquote style=&quot;border: none; margin: 0px 0px 0px 40px; padding: 0px; font-size: 16px;&quot;&gt;&lt;blockquote style=&quot;border: none; margin: 0px 0px 0px 40px; padding: 0px; font-size: 16px;&quot;&gt;&lt;blockquote style=&quot;border: none; margin: 0px 0px 0px 40px; padding: 0px; font-size: 16px;&quot;&gt;&lt;/blockquote&gt;&lt;/blockquote&gt;&lt;/blockquote&gt;&lt;/h1&gt;&lt;h1 style=&quot;border-color: var(--border-color); font-size: 16px;&quot;&gt;&lt;i&gt;&amp;nbsp; &amp;nbsp;&lt;/i&gt;&lt;/h1&gt;&lt;h1 style=&quot;font-size: 16px;&quot;&gt;&lt;blockquote style=&quot;border: none; margin: 0px 0px 0px 40px; padding: 0px; font-size: 16px;&quot;&gt;&lt;blockquote style=&quot;border: none; margin: 0px 0px 0px 40px; padding: 0px; font-size: 16px;&quot;&gt;&lt;blockquote style=&quot;border: none; margin: 0px 0px 0px 40px; padding: 0px; font-size: 16px;&quot;&gt;&lt;/blockquote&gt;&lt;/blockquote&gt;&lt;/blockquote&gt;&lt;/h1&gt;&lt;h1 style=&quot;border-color: var(--border-color); font-size: 16px;&quot;&gt;&lt;span style=&quot;border-color: var(--border-color); font-size: 16px;&quot;&gt;&lt;i&gt;Object기본생성자호출종료&lt;/i&gt;&lt;/span&gt;&lt;/h1&gt;&lt;h1 style=&quot;font-size: 16px;&quot;&gt;&lt;blockquote style=&quot;border: none; margin: 0px 0px 0px 40px; padding: 0px; font-size: 16px;&quot;&gt;&lt;blockquote style=&quot;border: none; margin: 0px 0px 0px 40px; padding: 0px; font-size: 16px;&quot;&gt;&lt;blockquote style=&quot;border: none; margin: 0px 0px 0px 40px; padding: 0px; font-size: 16px;&quot;&gt;&lt;/blockquote&gt;&lt;/blockquote&gt;&lt;/blockquote&gt;&lt;blockquote style=&quot;border: none; margin: 0px 0px 0px 40px; padding: 0px; font-size: 16px;&quot;&gt;&lt;/blockquote&gt;&lt;/h1&gt;&lt;h1 style=&quot;border-color: var(--border-color); font-size: 16px;&quot;&gt;&lt;br style=&quot;font-size: 16px;&quot;&gt;&lt;/h1&gt;" style="text;html=1;strokeColor=#B09500;fillColor=#e3c800;spacing=5;spacingTop=-20;whiteSpace=wrap;overflow=hidden;rounded=0;fontSize=16;fontFamily=Helvetica;fontStyle=1;fontColor=#000000;" vertex="1" parent="zY5DxXfeIwydcZwarmQJ-21">
          <mxGeometry x="37.34931506849314" y="52" width="359.73287671232873" height="84" as="geometry" />
        </mxCell>
        <mxCell id="zY5DxXfeIwydcZwarmQJ-17" value="&lt;h1 style=&quot;border-color: var(--border-color); font-size: 16px;&quot;&gt;&lt;p style=&quot;border-color: var(--border-color); background-color: initial; font-family: -apple-system, BlinkMacSystemFont, &amp;quot;Segoe UI&amp;quot;, &amp;quot;Noto Sans&amp;quot;, Helvetica, Arial, sans-serif, &amp;quot;Apple Color Emoji&amp;quot;, &amp;quot;Segoe UI Emoji&amp;quot;; box-sizing: border-box; margin-top: 16px; margin-bottom: 16px; font-size: 16px; display: inline !important;&quot; dir=&quot;auto&quot;&gt;&lt;i&gt;Parent기본생성자호출시작&lt;/i&gt;&lt;/p&gt;&lt;/h1&gt;&lt;h1 style=&quot;border-color: var(--border-color); font-size: 16px;&quot;&gt;&lt;i&gt;&lt;span style=&quot;white-space: pre;&quot;&gt;&#x9;&lt;/span&gt;/**상위클래스(Object)의 생성자가 호출**/&amp;nbsp; &amp;nbsp;&amp;nbsp;&lt;/i&gt;&lt;/h1&gt;&lt;h1 style=&quot;border-color: var(--border-color); font-size: 16px;&quot;&gt;&lt;span style=&quot;font-size: 16px;&quot;&gt;&lt;i&gt;&lt;span style=&quot;white-space: pre;&quot;&gt;&#x9;&lt;/span&gt;super();&lt;/i&gt;&lt;/span&gt;&lt;/h1&gt;&lt;h1 style=&quot;border-color: var(--border-color); font-size: 16px;&quot;&gt;&lt;span style=&quot;border-color: var(--border-color); font-size: 16px;&quot;&gt;&lt;i&gt;Parent기본생성자호출종료&lt;/i&gt;&lt;/span&gt;&lt;/h1&gt;" style="text;html=1;strokeColor=#C73500;fillColor=#fa6800;spacing=5;spacingTop=-20;whiteSpace=wrap;overflow=hidden;rounded=0;fontSize=16;fontFamily=Helvetica;fontStyle=1;fontColor=#000000;" vertex="1" parent="zY5DxXfeIwydcZwarmQJ-21">
          <mxGeometry x="39.31506849315068" y="256" width="362.68150684931504" height="110" as="geometry" />
        </mxCell>
        <mxCell id="zY5DxXfeIwydcZwarmQJ-18" value="&lt;h1 style=&quot;border-color: var(--border-color); font-size: 16px;&quot;&gt;&lt;font color=&quot;#000000&quot;&gt;&lt;i&gt;Child기본생성자호출시작&lt;br style=&quot;border-color: var(--border-color); font-size: 16px;&quot;&gt;&lt;/i&gt;&lt;/font&gt;&lt;/h1&gt;&lt;h1 style=&quot;border-color: var(--border-color); font-size: 17px;&quot;&gt;&lt;font color=&quot;#000000&quot; style=&quot;border-color: var(--border-color);&quot;&gt;&lt;i&gt;&lt;span style=&quot;white-space: pre;&quot;&gt;&#x9;&lt;/span&gt;/**상위클래스(Parent)의 생성자가 호출**/&lt;/i&gt;&lt;/font&gt;&lt;/h1&gt;&lt;div&gt;&lt;font color=&quot;#000000&quot; style=&quot;border-color: var(--border-color);&quot;&gt;&lt;i&gt;&lt;span style=&quot;white-space: pre;&quot;&gt;&#x9;&lt;/span&gt;super();&lt;br&gt;&lt;/i&gt;&lt;/font&gt;&lt;/div&gt;&lt;h1 style=&quot;border-color: var(--border-color); font-size: 16px;&quot;&gt;&lt;blockquote style=&quot;border: none; font-size: 16px; margin: 0px 0px 0px 40px; padding: 0px;&quot;&gt;&lt;blockquote style=&quot;border: none; margin: 0px 0px 0px 40px; padding: 0px; font-size: 16px;&quot;&gt;&lt;/blockquote&gt;&lt;/blockquote&gt;&lt;/h1&gt;&lt;h1 style=&quot;border-color: var(--border-color); font-size: 16px;&quot;&gt;&lt;font color=&quot;#000000&quot;&gt;&lt;i&gt;Child기본생성자호출종료&lt;/i&gt;&lt;/font&gt;&lt;/h1&gt;" style="text;html=1;strokeColor=#B20000;fillColor=#e51400;spacing=5;spacingTop=-20;whiteSpace=wrap;overflow=hidden;rounded=0;fontSize=16;fontFamily=Helvetica;fontStyle=1;fontColor=#ffffff;" vertex="1" parent="zY5DxXfeIwydcZwarmQJ-21">
          <mxGeometry x="42.263698630136986" y="486" width="363.66438356164383" height="115" as="geometry" />
        </mxCell>
        <mxCell id="zY5DxXfeIwydcZwarmQJ-22" value="&lt;h1&gt;Child객체&lt;/h1&gt;" style="text;html=1;strokeColor=#b85450;fillColor=#f8cecc;spacing=5;spacingTop=-20;whiteSpace=wrap;overflow=hidden;rounded=0;fontSize=12;fontFamily=Helvetica;" vertex="1" parent="1">
          <mxGeometry x="578" y="-957" width="150" height="34" as="geometry" />
        </mxCell>
        <mxCell id="zY5DxXfeIwydcZwarmQJ-23" value="&lt;h1&gt;&lt;font style=&quot;font-size: 22px;&quot;&gt;Child기본생성자호출&lt;/font&gt;&lt;/h1&gt;" style="text;html=1;strokeColor=#b85450;fillColor=#f8cecc;spacing=5;spacingTop=-20;whiteSpace=wrap;overflow=hidden;rounded=0;fontSize=12;fontFamily=Helvetica;" vertex="1" parent="1">
          <mxGeometry x="28" y="-254" width="223" height="36" as="geometry" />
        </mxCell>
        <mxCell id="zY5DxXfeIwydcZwarmQJ-24" value="&lt;h1 style=&quot;font-size: 17px;&quot;&gt;#95&lt;/h1&gt;" style="text;html=1;strokeColor=#b85450;fillColor=#f8cecc;spacing=5;spacingTop=-20;whiteSpace=wrap;overflow=hidden;rounded=0;fontSize=17;fontFamily=Helvetica;fontColor=#CC0000;align=center;" vertex="1" parent="1">
          <mxGeometry x="372" y="-896" width="49" height="30" as="geometry" />
        </mxCell>
        <mxCell id="zY5DxXfeIwydcZwarmQJ-25" value="&lt;h1 style=&quot;font-size: 17px;&quot;&gt;#95&lt;/h1&gt;" style="text;html=1;strokeColor=#b85450;fillColor=#f8cecc;spacing=5;spacingTop=-20;whiteSpace=wrap;overflow=hidden;rounded=0;fontSize=17;fontFamily=Helvetica;fontColor=#CC0000;align=center;" vertex="1" parent="1">
          <mxGeometry x="-145" y="-221" width="49" height="30" as="geometry" />
        </mxCell>
      </root>
    </mxGraphModel>
  </diagram>
</mxfile>
